<?xml version="1.0" encoding="UTF-8" standalone="no"?>
<!DOCTYPE svg PUBLIC "-//W3C//DTD SVG 1.1//EN"
 "http://www.w3.org/Graphics/SVG/1.1/DTD/svg11.dtd">
<!-- Generated by graphviz version 2.29.20121010.0445 (20121010.0445)
 -->
<!-- Title: controllers_diagram Pages: 1 -->
<svg width="777pt" height="698pt"
 viewBox="0.00 0.00 777.00 698.00" xmlns="http://www.w3.org/2000/svg" xmlns:xlink="http://www.w3.org/1999/xlink">
<g id="graph0" class="graph" transform="scale(1 1) rotate(0) translate(4 694)">
<title>controllers_diagram</title>
<polygon fill="white" stroke="white" points="-4,5 -4,-694 774,-694 774,5 -4,5"/>
<!-- _diagram_info -->
<g id="node1" class="node"><title>_diagram_info</title>
<text text-anchor="start" x="569" y="-675.6" font-family="Times,serif" font-size="13.00">Controllers diagram</text>
<text text-anchor="start" x="569" y="-661.6" font-family="Times,serif" font-size="13.00">Date: Out 10 2012 &#45; 15:30</text>
<text text-anchor="start" x="569" y="-647.6" font-family="Times,serif" font-size="13.00">Migration version: 20120919191117</text>
<text text-anchor="start" x="569" y="-633.6" font-family="Times,serif" font-size="13.00">Generated by RailRoady 1.1.0</text>
<text text-anchor="start" x="569" y="-619.6" font-family="Times,serif" font-size="13.00">http://railroady.prestonlee.com</text>
</g>
<!-- ApplicationController -->
<g id="node2" class="node"><title>ApplicationController</title>
<path fill="none" stroke="black" d="M243,-254.537C243,-254.537 422,-254.537 422,-254.537 428,-254.537 434,-260.537 434,-266.537 434,-266.537 434,-335.537 434,-335.537 434,-341.537 428,-347.537 422,-347.537 422,-347.537 243,-347.537 243,-347.537 237,-347.537 231,-341.537 231,-335.537 231,-335.537 231,-266.537 231,-266.537 231,-260.537 237,-254.537 243,-254.537"/>
<text text-anchor="middle" x="332.5" y="-332.337" font-family="Times,serif" font-size="14.00">ApplicationController</text>
<polyline fill="none" stroke="black" points="231,-324.537 434,-324.537 "/>
<text text-anchor="start" x="239" y="-309.337" font-family="Times,serif" font-size="14.00">_one_time_conditions_valid_12?</text>
<polyline fill="none" stroke="black" points="231,-301.537 434,-301.537 "/>
<polyline fill="none" stroke="black" points="231,-277.537 434,-277.537 "/>
<text text-anchor="start" x="239" y="-262.337" font-family="Times,serif" font-size="14.00">_layout</text>
</g>
<!-- EntidadesController -->
<g id="node3" class="node"><title>EntidadesController</title>
<path fill="none" stroke="black" d="M499.802,-66.7533C499.802,-66.7533 604.802,-66.7533 604.802,-66.7533 610.802,-66.7533 616.802,-72.7533 616.802,-78.7533 616.802,-78.7533 616.802,-267.753 616.802,-267.753 616.802,-273.753 610.802,-279.753 604.802,-279.753 604.802,-279.753 499.802,-279.753 499.802,-279.753 493.802,-279.753 487.802,-273.753 487.802,-267.753 487.802,-267.753 487.802,-78.7533 487.802,-78.7533 487.802,-72.7533 493.802,-66.7533 499.802,-66.7533"/>
<text text-anchor="middle" x="552.302" y="-264.553" font-family="Times,serif" font-size="14.00">EntidadesController</text>
<polyline fill="none" stroke="black" points="487.802,-256.753 616.802,-256.753 "/>
<text text-anchor="start" x="495.802" y="-241.553" font-family="Times,serif" font-size="14.00">buscar</text>
<text text-anchor="start" x="495.802" y="-226.553" font-family="Times,serif" font-size="14.00">buscarArray</text>
<text text-anchor="start" x="495.802" y="-211.553" font-family="Times,serif" font-size="14.00">create</text>
<text text-anchor="start" x="495.802" y="-196.553" font-family="Times,serif" font-size="14.00">destroy</text>
<text text-anchor="start" x="495.802" y="-181.553" font-family="Times,serif" font-size="14.00">edit</text>
<text text-anchor="start" x="495.802" y="-166.553" font-family="Times,serif" font-size="14.00">index</text>
<text text-anchor="start" x="495.802" y="-151.553" font-family="Times,serif" font-size="14.00">new</text>
<text text-anchor="start" x="495.802" y="-136.553" font-family="Times,serif" font-size="14.00">show</text>
<text text-anchor="start" x="495.802" y="-121.553" font-family="Times,serif" font-size="14.00">update</text>
<polyline fill="none" stroke="black" points="487.802,-113.753 616.802,-113.753 "/>
<polyline fill="none" stroke="black" points="487.802,-89.7533 616.802,-89.7533 "/>
<text text-anchor="start" x="495.802" y="-74.5533" font-family="Times,serif" font-size="14.00">_layout</text>
</g>
<!-- ApplicationController&#45;&gt;EntidadesController -->
<g id="edge1" class="edge"><title>ApplicationController&#45;&gt;EntidadesController</title>
<path fill="none" stroke="black" d="M412.787,-254.362C437.436,-240.031 464.234,-224.452 487.694,-210.814"/>
</g>
<!-- HistoricosController -->
<g id="node4" class="node"><title>HistoricosController</title>
<path fill="none" stroke="black" d="M277.991,-0.5C277.991,-0.5 385.991,-0.5 385.991,-0.5 391.991,-0.5 397.991,-6.5 397.991,-12.5 397.991,-12.5 397.991,-81.5 397.991,-81.5 397.991,-87.5 391.991,-93.5 385.991,-93.5 385.991,-93.5 277.991,-93.5 277.991,-93.5 271.991,-93.5 265.991,-87.5 265.991,-81.5 265.991,-81.5 265.991,-12.5 265.991,-12.5 265.991,-6.5 271.991,-0.5 277.991,-0.5"/>
<text text-anchor="middle" x="331.991" y="-78.3" font-family="Times,serif" font-size="14.00">HistoricosController</text>
<polyline fill="none" stroke="black" points="265.991,-70.5 397.991,-70.5 "/>
<text text-anchor="start" x="273.991" y="-55.3" font-family="Times,serif" font-size="14.00">create</text>
<polyline fill="none" stroke="black" points="265.991,-47.5 397.991,-47.5 "/>
<polyline fill="none" stroke="black" points="265.991,-23.5 397.991,-23.5 "/>
<text text-anchor="start" x="273.991" y="-8.3" font-family="Times,serif" font-size="14.00">_layout</text>
</g>
<!-- ApplicationController&#45;&gt;HistoricosController -->
<g id="edge2" class="edge"><title>ApplicationController&#45;&gt;HistoricosController</title>
<path fill="none" stroke="black" d="M332.407,-254.443C332.315,-208.75 332.176,-139.468 332.084,-93.7284"/>
</g>
<!-- HomeController -->
<g id="node5" class="node"><title>HomeController</title>
<path fill="none" stroke="black" d="M72.6908,-385.223C72.6908,-385.223 156.691,-385.223 156.691,-385.223 162.691,-385.223 168.691,-391.223 168.691,-397.223 168.691,-397.223 168.691,-466.223 168.691,-466.223 168.691,-472.223 162.691,-478.223 156.691,-478.223 156.691,-478.223 72.6908,-478.223 72.6908,-478.223 66.6908,-478.223 60.6908,-472.223 60.6908,-466.223 60.6908,-466.223 60.6908,-397.223 60.6908,-397.223 60.6908,-391.223 66.6908,-385.223 72.6908,-385.223"/>
<text text-anchor="middle" x="114.691" y="-463.023" font-family="Times,serif" font-size="14.00">HomeController</text>
<polyline fill="none" stroke="black" points="60.6908,-455.223 168.691,-455.223 "/>
<text text-anchor="start" x="68.6908" y="-440.023" font-family="Times,serif" font-size="14.00">index</text>
<polyline fill="none" stroke="black" points="60.6908,-432.223 168.691,-432.223 "/>
<polyline fill="none" stroke="black" points="60.6908,-408.223 168.691,-408.223 "/>
<text text-anchor="start" x="68.6908" y="-393.023" font-family="Times,serif" font-size="14.00">_layout</text>
</g>
<!-- ApplicationController&#45;&gt;HomeController -->
<g id="edge3" class="edge"><title>ApplicationController&#45;&gt;HomeController</title>
<path fill="none" stroke="black" d="M254.788,-347.664C226.322,-364.744 194.751,-383.687 168.796,-399.26"/>
</g>
<!-- PostsController -->
<g id="node6" class="node"><title>PostsController</title>
<path fill="none" stroke="black" d="M514.1,-334.338C514.1,-334.338 594.1,-334.338 594.1,-334.338 600.1,-334.338 606.1,-340.338 606.1,-346.338 606.1,-346.338 606.1,-505.338 606.1,-505.338 606.1,-511.338 600.1,-517.338 594.1,-517.338 594.1,-517.338 514.1,-517.338 514.1,-517.338 508.1,-517.338 502.1,-511.338 502.1,-505.338 502.1,-505.338 502.1,-346.338 502.1,-346.338 502.1,-340.338 508.1,-334.338 514.1,-334.338"/>
<text text-anchor="middle" x="554.1" y="-502.138" font-family="Times,serif" font-size="14.00">PostsController</text>
<polyline fill="none" stroke="black" points="502.1,-494.338 606.1,-494.338 "/>
<text text-anchor="start" x="510.1" y="-479.138" font-family="Times,serif" font-size="14.00">create</text>
<text text-anchor="start" x="510.1" y="-464.138" font-family="Times,serif" font-size="14.00">destroy</text>
<text text-anchor="start" x="510.1" y="-449.138" font-family="Times,serif" font-size="14.00">edit</text>
<text text-anchor="start" x="510.1" y="-434.138" font-family="Times,serif" font-size="14.00">index</text>
<text text-anchor="start" x="510.1" y="-419.138" font-family="Times,serif" font-size="14.00">new</text>
<text text-anchor="start" x="510.1" y="-404.138" font-family="Times,serif" font-size="14.00">show</text>
<text text-anchor="start" x="510.1" y="-389.138" font-family="Times,serif" font-size="14.00">update</text>
<polyline fill="none" stroke="black" points="502.1,-381.338 606.1,-381.338 "/>
<polyline fill="none" stroke="black" points="502.1,-357.338 606.1,-357.338 "/>
<text text-anchor="start" x="510.1" y="-342.138" font-family="Times,serif" font-size="14.00">_layout</text>
</g>
<!-- ApplicationController&#45;&gt;PostsController -->
<g id="edge4" class="edge"><title>ApplicationController&#45;&gt;PostsController</title>
<path fill="none" stroke="black" d="M415.331,-347.686C444.343,-364.025 476.093,-381.906 501.893,-396.436"/>
</g>
<!-- VoluntarioPessoaFisicasController -->
<g id="node7" class="node"><title>VoluntarioPessoaFisicasController</title>
<path fill="none" stroke="black" d="M242.924,-463.699C242.924,-463.699 430.924,-463.699 430.924,-463.699 436.924,-463.699 442.924,-469.699 442.924,-475.699 442.924,-475.699 442.924,-634.699 442.924,-634.699 442.924,-640.699 436.924,-646.699 430.924,-646.699 430.924,-646.699 242.924,-646.699 242.924,-646.699 236.924,-646.699 230.924,-640.699 230.924,-634.699 230.924,-634.699 230.924,-475.699 230.924,-475.699 230.924,-469.699 236.924,-463.699 242.924,-463.699"/>
<text text-anchor="middle" x="336.924" y="-631.499" font-family="Times,serif" font-size="14.00">VoluntarioPessoaFisicasController</text>
<polyline fill="none" stroke="black" points="230.924,-623.699 442.924,-623.699 "/>
<text text-anchor="start" x="238.924" y="-608.499" font-family="Times,serif" font-size="14.00">create</text>
<text text-anchor="start" x="238.924" y="-593.499" font-family="Times,serif" font-size="14.00">destroy</text>
<text text-anchor="start" x="238.924" y="-578.499" font-family="Times,serif" font-size="14.00">edit</text>
<text text-anchor="start" x="238.924" y="-563.499" font-family="Times,serif" font-size="14.00">index</text>
<text text-anchor="start" x="238.924" y="-548.499" font-family="Times,serif" font-size="14.00">new</text>
<text text-anchor="start" x="238.924" y="-533.499" font-family="Times,serif" font-size="14.00">show</text>
<text text-anchor="start" x="238.924" y="-518.499" font-family="Times,serif" font-size="14.00">update</text>
<polyline fill="none" stroke="black" points="230.924,-510.699 442.924,-510.699 "/>
<polyline fill="none" stroke="black" points="230.924,-486.699 442.924,-486.699 "/>
<text text-anchor="start" x="238.924" y="-471.499" font-family="Times,serif" font-size="14.00">_layout</text>
</g>
<!-- ApplicationController&#45;&gt;VoluntarioPessoaFisicasController -->
<g id="edge5" class="edge"><title>ApplicationController&#45;&gt;VoluntarioPessoaFisicasController</title>
<path fill="none" stroke="black" d="M333.311,-347.654C333.875,-380.042 334.645,-424.276 335.329,-463.587"/>
</g>
<!-- VoluntarioPessoaJuridicasController -->
<g id="node8" class="node"><title>VoluntarioPessoaJuridicasController</title>
<path fill="none" stroke="black" d="M12,-84.4869C12,-84.4869 211,-84.4869 211,-84.4869 217,-84.4869 223,-90.4869 223,-96.4869 223,-96.4869 223,-255.487 223,-255.487 223,-261.487 217,-267.487 211,-267.487 211,-267.487 12,-267.487 12,-267.487 6,-267.487 0,-261.487 0,-255.487 0,-255.487 0,-96.4869 0,-96.4869 0,-90.4869 6,-84.4869 12,-84.4869"/>
<text text-anchor="middle" x="111.5" y="-252.287" font-family="Times,serif" font-size="14.00">VoluntarioPessoaJuridicasController</text>
<polyline fill="none" stroke="black" points="0,-244.487 223,-244.487 "/>
<text text-anchor="start" x="8" y="-229.287" font-family="Times,serif" font-size="14.00">create</text>
<text text-anchor="start" x="8" y="-214.287" font-family="Times,serif" font-size="14.00">destroy</text>
<text text-anchor="start" x="8" y="-199.287" font-family="Times,serif" font-size="14.00">edit</text>
<text text-anchor="start" x="8" y="-184.287" font-family="Times,serif" font-size="14.00">index</text>
<text text-anchor="start" x="8" y="-169.287" font-family="Times,serif" font-size="14.00">new</text>
<text text-anchor="start" x="8" y="-154.287" font-family="Times,serif" font-size="14.00">show</text>
<text text-anchor="start" x="8" y="-139.287" font-family="Times,serif" font-size="14.00">update</text>
<polyline fill="none" stroke="black" points="0,-131.487 223,-131.487 "/>
<polyline fill="none" stroke="black" points="0,-107.487 223,-107.487 "/>
<text text-anchor="start" x="8" y="-92.2869" font-family="Times,serif" font-size="14.00">_layout</text>
</g>
<!-- ApplicationController&#45;&gt;VoluntarioPessoaJuridicasController -->
<g id="edge6" class="edge"><title>ApplicationController&#45;&gt;VoluntarioPessoaJuridicasController</title>
<path fill="none" stroke="black" d="M250.208,-254.473C241.372,-249.473 232.278,-244.328 223.174,-239.176"/>
</g>
</g>
</svg>
