<?xml version="1.0" encoding="UTF-8" standalone="no"?>
<!DOCTYPE svg PUBLIC "-//W3C//DTD SVG 1.1//EN"
 "http://www.w3.org/Graphics/SVG/1.1/DTD/svg11.dtd">
<!-- Generated by graphviz version 2.29.20121010.0445 (20121010.0445)
 -->
<!-- Title: controllers_diagram Pages: 1 -->
<svg width="777pt" height="698pt"
 viewBox="0.00 0.00 777.00 698.00" xmlns="http://www.w3.org/2000/svg" xmlns:xlink="http://www.w3.org/1999/xlink">
<g id="graph0" class="graph" transform="scale(1 1) rotate(0) translate(4 694)">
<title>controllers_diagram</title>
<polygon fill="white" stroke="white" points="-4,5 -4,-694 774,-694 774,5 -4,5"/>
<!-- _diagram_info -->
<g id="node1" class="node"><title>_diagram_info</title>
<text text-anchor="start" x="569" y="-675.6" font-family="Times,serif" font-size="13.00">Controllers diagram</text>
<text text-anchor="start" x="569" y="-661.6" font-family="Times,serif" font-size="13.00">Date: Out 16 2012 &#45; 11:36</text>
<text text-anchor="start" x="569" y="-647.6" font-family="Times,serif" font-size="13.00">Migration version: 20120919191117</text>
<text text-anchor="start" x="569" y="-633.6" font-family="Times,serif" font-size="13.00">Generated by RailRoady 1.1.0</text>
<text text-anchor="start" x="569" y="-619.6" font-family="Times,serif" font-size="13.00">http://railroady.prestonlee.com</text>
</g>
<!-- ApplicationController -->
<g id="node2" class="node"><title>ApplicationController</title>
<path fill="none" stroke="black" d="M243,-254.537C243,-254.537 422,-254.537 422,-254.537 428,-254.537 434,-260.537 434,-266.537 434,-266.537 434,-335.537 434,-335.537 434,-341.537 428,-347.537 422,-347.537 422,-347.537 243,-347.537 243,-347.537 237,-347.537 231,-341.537 231,-335.537 231,-335.537 231,-266.537 231,-266.537 231,-260.537 237,-254.537 243,-254.537"/>
<text text-anchor="middle" x="332.5" y="-332.337" font-family="Times,serif" font-size="14.00">ApplicationController</text>
<polyline fill="none" stroke="black" points="231,-324.537 434,-324.537 "/>
<text text-anchor="start" x="239" y="-309.337" font-family="Times,serif" font-size="14.00">_one_time_conditions_valid_12?</text>
<polyline fill="none" stroke="black" points="231,-301.537 434,-301.537 "/>
<polyline fill="none" stroke="black" points="231,-277.537 434,-277.537 "/>
<text text-anchor="start" x="239" y="-262.337" font-family="Times,serif" font-size="14.00">_layout</text>
</g>
<!-- EntidadesController -->
<g id="node3" class="node"><title>EntidadesController</title>
<path fill="none" stroke="black" d="M499.802,-44.2533C499.802,-44.2533 604.802,-44.2533 604.802,-44.2533 610.802,-44.2533 616.802,-50.2533 616.802,-56.2533 616.802,-56.2533 616.802,-290.253 616.802,-290.253 616.802,-296.253 610.802,-302.253 604.802,-302.253 604.802,-302.253 499.802,-302.253 499.802,-302.253 493.802,-302.253 487.802,-296.253 487.802,-290.253 487.802,-290.253 487.802,-56.2533 487.802,-56.2533 487.802,-50.2533 493.802,-44.2533 499.802,-44.2533"/>
<text text-anchor="middle" x="552.302" y="-287.053" font-family="Times,serif" font-size="14.00">EntidadesController</text>
<polyline fill="none" stroke="black" points="487.802,-279.253 616.802,-279.253 "/>
<text text-anchor="start" x="495.802" y="-264.053" font-family="Times,serif" font-size="14.00">buscar</text>
<text text-anchor="start" x="495.802" y="-249.053" font-family="Times,serif" font-size="14.00">buscarArray</text>
<text text-anchor="start" x="495.802" y="-234.053" font-family="Times,serif" font-size="14.00">create</text>
<text text-anchor="start" x="495.802" y="-219.053" font-family="Times,serif" font-size="14.00">destroy</text>
<text text-anchor="start" x="495.802" y="-204.053" font-family="Times,serif" font-size="14.00">edit</text>
<text text-anchor="start" x="495.802" y="-189.053" font-family="Times,serif" font-size="14.00">editarmeucadastro</text>
<text text-anchor="start" x="495.802" y="-174.053" font-family="Times,serif" font-size="14.00">index</text>
<text text-anchor="start" x="495.802" y="-159.053" font-family="Times,serif" font-size="14.00">new</text>
<text text-anchor="start" x="495.802" y="-144.053" font-family="Times,serif" font-size="14.00">several</text>
<text text-anchor="start" x="495.802" y="-129.053" font-family="Times,serif" font-size="14.00">show</text>
<text text-anchor="start" x="495.802" y="-114.053" font-family="Times,serif" font-size="14.00">update</text>
<text text-anchor="start" x="495.802" y="-99.0533" font-family="Times,serif" font-size="14.00">vermeucadastro</text>
<polyline fill="none" stroke="black" points="487.802,-91.2533 616.802,-91.2533 "/>
<polyline fill="none" stroke="black" points="487.802,-67.2533 616.802,-67.2533 "/>
<text text-anchor="start" x="495.802" y="-52.0533" font-family="Times,serif" font-size="14.00">_layout</text>
</g>
<!-- ApplicationController&#45;&gt;EntidadesController -->
<g id="edge1" class="edge"><title>ApplicationController&#45;&gt;EntidadesController</title>
<path fill="none" stroke="black" d="M412.787,-254.362C437.436,-240.031 464.234,-224.452 487.694,-210.814"/>
</g>
<!-- HistoricosController -->
<g id="node4" class="node"><title>HistoricosController</title>
<path fill="none" stroke="black" d="M277.991,-0.5C277.991,-0.5 385.991,-0.5 385.991,-0.5 391.991,-0.5 397.991,-6.5 397.991,-12.5 397.991,-12.5 397.991,-81.5 397.991,-81.5 397.991,-87.5 391.991,-93.5 385.991,-93.5 385.991,-93.5 277.991,-93.5 277.991,-93.5 271.991,-93.5 265.991,-87.5 265.991,-81.5 265.991,-81.5 265.991,-12.5 265.991,-12.5 265.991,-6.5 271.991,-0.5 277.991,-0.5"/>
<text text-anchor="middle" x="331.991" y="-78.3" font-family="Times,serif" font-size="14.00">HistoricosController</text>
<polyline fill="none" stroke="black" points="265.991,-70.5 397.991,-70.5 "/>
<text text-anchor="start" x="273.991" y="-55.3" font-family="Times,serif" font-size="14.00">create</text>
<polyline fill="none" stroke="black" points="265.991,-47.5 397.991,-47.5 "/>
<polyline fill="none" stroke="black" points="265.991,-23.5 397.991,-23.5 "/>
<text text-anchor="start" x="273.991" y="-8.3" font-family="Times,serif" font-size="14.00">_layout</text>
</g>
<!-- ApplicationController&#45;&gt;HistoricosController -->
<g id="edge2" class="edge"><title>ApplicationController&#45;&gt;HistoricosController</title>
<path fill="none" stroke="black" d="M332.407,-254.443C332.315,-208.75 332.176,-139.468 332.084,-93.7284"/>
</g>
<!-- HomeController -->
<g id="node5" class="node"><title>HomeController</title>
<path fill="none" stroke="black" d="M72.6908,-385.223C72.6908,-385.223 156.691,-385.223 156.691,-385.223 162.691,-385.223 168.691,-391.223 168.691,-397.223 168.691,-397.223 168.691,-466.223 168.691,-466.223 168.691,-472.223 162.691,-478.223 156.691,-478.223 156.691,-478.223 72.6908,-478.223 72.6908,-478.223 66.6908,-478.223 60.6908,-472.223 60.6908,-466.223 60.6908,-466.223 60.6908,-397.223 60.6908,-397.223 60.6908,-391.223 66.6908,-385.223 72.6908,-385.223"/>
<text text-anchor="middle" x="114.691" y="-463.023" font-family="Times,serif" font-size="14.00">HomeController</text>
<polyline fill="none" stroke="black" points="60.6908,-455.223 168.691,-455.223 "/>
<text text-anchor="start" x="68.6908" y="-440.023" font-family="Times,serif" font-size="14.00">index</text>
<polyline fill="none" stroke="black" points="60.6908,-432.223 168.691,-432.223 "/>
<polyline fill="none" stroke="black" points="60.6908,-408.223 168.691,-408.223 "/>
<text text-anchor="start" x="68.6908" y="-393.023" font-family="Times,serif" font-size="14.00">_layout</text>
</g>
<!-- ApplicationController&#45;&gt;HomeController -->
<g id="edge3" class="edge"><title>ApplicationController&#45;&gt;HomeController</title>
<path fill="none" stroke="black" d="M254.788,-347.664C226.322,-364.744 194.751,-383.687 168.796,-399.26"/>
</g>
<!-- PostsController -->
<g id="node6" class="node"><title>PostsController</title>
<path fill="none" stroke="black" d="M514.1,-334.338C514.1,-334.338 594.1,-334.338 594.1,-334.338 600.1,-334.338 606.1,-340.338 606.1,-346.338 606.1,-346.338 606.1,-505.338 606.1,-505.338 606.1,-511.338 600.1,-517.338 594.1,-517.338 594.1,-517.338 514.1,-517.338 514.1,-517.338 508.1,-517.338 502.1,-511.338 502.1,-505.338 502.1,-505.338 502.1,-346.338 502.1,-346.338 502.1,-340.338 508.1,-334.338 514.1,-334.338"/>
<text text-anchor="middle" x="554.1" y="-502.138" font-family="Times,serif" font-size="14.00">PostsController</text>
<polyline fill="none" stroke="black" points="502.1,-494.338 606.1,-494.338 "/>
<text text-anchor="start" x="510.1" y="-479.138" font-family="Times,serif" font-size="14.00">create</text>
<text text-anchor="start" x="510.1" y="-464.138" font-family="Times,serif" font-size="14.00">destroy</text>
<text text-anchor="start" x="510.1" y="-449.138" font-family="Times,serif" font-size="14.00">edit</text>
<text text-anchor="start" x="510.1" y="-434.138" font-family="Times,serif" font-size="14.00">index</text>
<text text-anchor="start" x="510.1" y="-419.138" font-family="Times,serif" font-size="14.00">new</text>
<text text-anchor="start" x="510.1" y="-404.138" font-family="Times,serif" font-size="14.00">show</text>
<text text-anchor="start" x="510.1" y="-389.138" font-family="Times,serif" font-size="14.00">update</text>
<polyline fill="none" stroke="black" points="502.1,-381.338 606.1,-381.338 "/>
<polyline fill="none" stroke="black" points="502.1,-357.338 606.1,-357.338 "/>
<text text-anchor="start" x="510.1" y="-342.138" font-family="Times,serif" font-size="14.00">_layout</text>
</g>
<!-- ApplicationController&#45;&gt;PostsController -->
<g id="edge4" class="edge"><title>ApplicationController&#45;&gt;PostsController</title>
<path fill="none" stroke="black" d="M415.331,-347.686C444.343,-364.025 476.093,-381.906 501.893,-396.436"/>
</g>
<!-- VoluntarioPessoaFisicasController -->
<g id="node7" class="node"><title>VoluntarioPessoaFisicasController</title>
<path fill="none" stroke="black" d="M242.924,-456.199C242.924,-456.199 430.924,-456.199 430.924,-456.199 436.924,-456.199 442.924,-462.199 442.924,-468.199 442.924,-468.199 442.924,-642.199 442.924,-642.199 442.924,-648.199 436.924,-654.199 430.924,-654.199 430.924,-654.199 242.924,-654.199 242.924,-654.199 236.924,-654.199 230.924,-648.199 230.924,-642.199 230.924,-642.199 230.924,-468.199 230.924,-468.199 230.924,-462.199 236.924,-456.199 242.924,-456.199"/>
<text text-anchor="middle" x="336.924" y="-638.999" font-family="Times,serif" font-size="14.00">VoluntarioPessoaFisicasController</text>
<polyline fill="none" stroke="black" points="230.924,-631.199 442.924,-631.199 "/>
<text text-anchor="start" x="238.924" y="-615.999" font-family="Times,serif" font-size="14.00">buscar</text>
<text text-anchor="start" x="238.924" y="-600.999" font-family="Times,serif" font-size="14.00">create</text>
<text text-anchor="start" x="238.924" y="-585.999" font-family="Times,serif" font-size="14.00">destroy</text>
<text text-anchor="start" x="238.924" y="-570.999" font-family="Times,serif" font-size="14.00">edit</text>
<text text-anchor="start" x="238.924" y="-555.999" font-family="Times,serif" font-size="14.00">index</text>
<text text-anchor="start" x="238.924" y="-540.999" font-family="Times,serif" font-size="14.00">new</text>
<text text-anchor="start" x="238.924" y="-525.999" font-family="Times,serif" font-size="14.00">show</text>
<text text-anchor="start" x="238.924" y="-510.999" font-family="Times,serif" font-size="14.00">update</text>
<polyline fill="none" stroke="black" points="230.924,-503.199 442.924,-503.199 "/>
<polyline fill="none" stroke="black" points="230.924,-479.199 442.924,-479.199 "/>
<text text-anchor="start" x="238.924" y="-463.999" font-family="Times,serif" font-size="14.00">_layout</text>
</g>
<!-- ApplicationController&#45;&gt;VoluntarioPessoaFisicasController -->
<g id="edge5" class="edge"><title>ApplicationController&#45;&gt;VoluntarioPessoaFisicasController</title>
<path fill="none" stroke="black" d="M333.311,-347.654C333.839,-377.964 334.547,-418.649 335.197,-455.964"/>
</g>
<!-- VoluntarioPessoaJuridicasController -->
<g id="node8" class="node"><title>VoluntarioPessoaJuridicasController</title>
<path fill="none" stroke="black" d="M12,-76.9869C12,-76.9869 211,-76.9869 211,-76.9869 217,-76.9869 223,-82.9869 223,-88.9869 223,-88.9869 223,-262.987 223,-262.987 223,-268.987 217,-274.987 211,-274.987 211,-274.987 12,-274.987 12,-274.987 6,-274.987 -2.84217e-14,-268.987 -2.84217e-14,-262.987 -2.84217e-14,-262.987 -2.84217e-14,-88.9869 -2.84217e-14,-88.9869 -2.84217e-14,-82.9869 6,-76.9869 12,-76.9869"/>
<text text-anchor="middle" x="111.5" y="-259.787" font-family="Times,serif" font-size="14.00">VoluntarioPessoaJuridicasController</text>
<polyline fill="none" stroke="black" points="-2.84217e-14,-251.987 223,-251.987 "/>
<text text-anchor="start" x="8" y="-236.787" font-family="Times,serif" font-size="14.00">buscar</text>
<text text-anchor="start" x="8" y="-221.787" font-family="Times,serif" font-size="14.00">create</text>
<text text-anchor="start" x="8" y="-206.787" font-family="Times,serif" font-size="14.00">destroy</text>
<text text-anchor="start" x="8" y="-191.787" font-family="Times,serif" font-size="14.00">edit</text>
<text text-anchor="start" x="8" y="-176.787" font-family="Times,serif" font-size="14.00">index</text>
<text text-anchor="start" x="8" y="-161.787" font-family="Times,serif" font-size="14.00">new</text>
<text text-anchor="start" x="8" y="-146.787" font-family="Times,serif" font-size="14.00">show</text>
<text text-anchor="start" x="8" y="-131.787" font-family="Times,serif" font-size="14.00">update</text>
<polyline fill="none" stroke="black" points="-2.84217e-14,-123.987 223,-123.987 "/>
<polyline fill="none" stroke="black" points="-2.84217e-14,-99.9869 223,-99.9869 "/>
<text text-anchor="start" x="8" y="-84.7869" font-family="Times,serif" font-size="14.00">_layout</text>
</g>
<!-- ApplicationController&#45;&gt;VoluntarioPessoaJuridicasController -->
<g id="edge6" class="edge"><title>ApplicationController&#45;&gt;VoluntarioPessoaJuridicasController</title>
<path fill="none" stroke="black" d="M250.208,-254.473C241.372,-249.473 232.278,-244.328 223.174,-239.176"/>
</g>
</g>
</svg>
