<?xml version="1.0" encoding="UTF-8" standalone="no"?>
<!DOCTYPE svg PUBLIC "-//W3C//DTD SVG 1.1//EN"
 "http://www.w3.org/Graphics/SVG/1.1/DTD/svg11.dtd">
<!-- Generated by graphviz version 2.29.20121010.0445 (20121010.0445)
 -->
<!-- Title: models_diagram Pages: 1 -->
<svg width="830pt" height="158pt"
 viewBox="0.00 0.00 830.00 158.00" xmlns="http://www.w3.org/2000/svg" xmlns:xlink="http://www.w3.org/1999/xlink">
<g id="graph0" class="graph" transform="scale(1 1) rotate(0) translate(4 154)">
<title>models_diagram</title>
<polygon fill="white" stroke="white" points="-4,5 -4,-154 827,-154 827,5 -4,5"/>
<!-- _diagram_info -->
<g id="node1" class="node"><title>_diagram_info</title>
<text text-anchor="start" x="8" y="-135.6" font-family="Times,serif" font-size="13.00">Models diagram</text>
<text text-anchor="start" x="8" y="-121.6" font-family="Times,serif" font-size="13.00">Date: Out 10 2012 &#45; 15:29</text>
<text text-anchor="start" x="8" y="-107.6" font-family="Times,serif" font-size="13.00">Migration version: 20120919191117</text>
<text text-anchor="start" x="8" y="-93.6" font-family="Times,serif" font-size="13.00">Generated by RailRoady 1.1.0</text>
<text text-anchor="start" x="8" y="-79.6" font-family="Times,serif" font-size="13.00">http://railroady.prestonlee.com</text>
</g>
<!-- Entidade -->
<g id="node2" class="node"><title>Entidade</title>
<ellipse fill="none" stroke="black" cx="269" cy="-111" rx="42.3456" ry="18"/>
<text text-anchor="middle" x="269" y="-107.3" font-family="Times,serif" font-size="14.00">Entidade</text>
</g>
<!-- Historico -->
<g id="node3" class="node"><title>Historico</title>
<ellipse fill="none" stroke="black" cx="427" cy="-18" rx="44.271" ry="18"/>
<text text-anchor="middle" x="427" y="-14.3" font-family="Times,serif" font-size="14.00">Historico</text>
</g>
<!-- Entidade&#45;&gt;Historico -->
<g id="edge1" class="edge"><title>Entidade&#45;&gt;Historico</title>
<path fill="none" stroke="#be5f0c" d="M294.815,-89.824C302.992,-83.7933 312.198,-77.3646 321,-72 342.787,-58.7213 368.339,-45.8707 388.897,-36.1494"/>
<ellipse fill="none" stroke="#be5f0c" cx="291.421" cy="-92.3662" rx="4.00002" ry="4.00002"/>
<polygon fill="#be5f0c" stroke="#be5f0c" points="388.9,-36.1479 399.865,-35.9893 393.429,-34.0303 397.959,-31.9127 397.959,-31.9127 397.959,-31.9127 393.429,-34.0303 396.053,-27.8362 388.9,-36.1479 388.9,-36.1479"/>
</g>
<!-- Post -->
<g id="node4" class="node"><title>Post</title>
<ellipse fill="none" stroke="black" cx="795" cy="-111" rx="27" ry="18"/>
<text text-anchor="middle" x="795" y="-107.3" font-family="Times,serif" font-size="14.00">Post</text>
</g>
<!-- VoluntarioPessoaFisica -->
<g id="node5" class="node"><title>VoluntarioPessoaFisica</title>
<ellipse fill="none" stroke="black" cx="427" cy="-111" rx="96.2631" ry="18"/>
<text text-anchor="middle" x="427" y="-107.3" font-family="Times,serif" font-size="14.00">VoluntarioPessoaFisica</text>
</g>
<!-- VoluntarioPessoaFisica&#45;&gt;Historico -->
<g id="edge2" class="edge"><title>VoluntarioPessoaFisica&#45;&gt;Historico</title>
<path fill="none" stroke="#c5b816" d="M427,-84.7285C427,-72.7246 427,-58.3622 427,-46.1291"/>
<ellipse fill="none" stroke="#c5b816" cx="427" cy="-88.8836" rx="4" ry="4"/>
<polygon fill="#c5b816" stroke="#c5b816" points="427,-46.0397 431.5,-36.0396 427,-41.0397 427,-36.0397 427,-36.0397 427,-36.0397 427,-41.0397 422.5,-36.0397 427,-46.0397 427,-46.0397"/>
</g>
<!-- VoluntarioPessoaJuridica -->
<g id="node6" class="node"><title>VoluntarioPessoaJuridica</title>
<ellipse fill="none" stroke="black" cx="646" cy="-111" rx="103.486" ry="18"/>
<text text-anchor="middle" x="646" y="-107.3" font-family="Times,serif" font-size="14.00">VoluntarioPessoaJuridica</text>
</g>
<!-- VoluntarioPessoaJuridica&#45;&gt;Historico -->
<g id="edge3" class="edge"><title>VoluntarioPessoaJuridica&#45;&gt;Historico</title>
<path fill="none" stroke="#847378" d="M600.326,-91.0213C560.798,-74.5966 504.224,-51.0884 466.588,-35.4497"/>
<ellipse fill="none" stroke="#847378" cx="604.159" cy="-92.6141" rx="4.00002" ry="4.00002"/>
<polygon fill="#847378" stroke="#847378" points="466.212,-35.2936 458.704,-27.3009 461.595,-33.375 456.978,-31.4564 456.978,-31.4564 456.978,-31.4564 461.595,-33.375 455.251,-35.6119 466.212,-35.2936 466.212,-35.2936"/>
</g>
</g>
</svg>
