<?xml version="1.0" encoding="UTF-8" standalone="no"?>
<!DOCTYPE svg PUBLIC "-//W3C//DTD SVG 1.1//EN"
 "http://www.w3.org/Graphics/SVG/1.1/DTD/svg11.dtd">
<!-- Generated by graphviz version 2.29.20121010.0445 (20121010.0445)
 -->
<!-- Title: models_diagram Pages: 1 -->
<svg width="1045pt" height="918pt"
 viewBox="0.00 0.00 1045.00 918.00" xmlns="http://www.w3.org/2000/svg" xmlns:xlink="http://www.w3.org/1999/xlink">
<g id="graph0" class="graph" transform="scale(1 1) rotate(0) translate(4 914)">
<title>models_diagram</title>
<polygon fill="white" stroke="white" points="-4,5 -4,-914 1042,-914 1042,5 -4,5"/>
<!-- _diagram_info -->
<g id="node1" class="node"><title>_diagram_info</title>
<text text-anchor="start" x="8" y="-573.6" font-family="Times,serif" font-size="13.00">Models diagram</text>
<text text-anchor="start" x="8" y="-559.6" font-family="Times,serif" font-size="13.00">Date: Out 10 2012 &#45; 15:29</text>
<text text-anchor="start" x="8" y="-545.6" font-family="Times,serif" font-size="13.00">Migration version: 20120919191117</text>
<text text-anchor="start" x="8" y="-531.6" font-family="Times,serif" font-size="13.00">Generated by RailRoady 1.1.0</text>
<text text-anchor="start" x="8" y="-517.6" font-family="Times,serif" font-size="13.00">http://railroady.prestonlee.com</text>
</g>
<!-- Entidade -->
<g id="node2" class="node"><title>Entidade</title>
<path fill="none" stroke="black" d="M238,-286C238,-286 436,-286 436,-286 442,-286 448,-292 448,-298 448,-298 448,-800 448,-800 448,-806 442,-812 436,-812 436,-812 238,-812 238,-812 232,-812 226,-806 226,-800 226,-800 226,-298 226,-298 226,-292 232,-286 238,-286"/>
<text text-anchor="middle" x="337" y="-796.8" font-family="Times,serif" font-size="14.00">Entidade</text>
<polyline fill="none" stroke="black" points="226,-789 448,-789 "/>
<text text-anchor="start" x="234" y="-773.8" font-family="Times,serif" font-size="14.00">id :integer</text>
<text text-anchor="start" x="234" y="-758.8" font-family="Times,serif" font-size="14.00">cnpj_ent :string</text>
<text text-anchor="start" x="234" y="-743.8" font-family="Times,serif" font-size="14.00">nome_ent :string</text>
<text text-anchor="start" x="234" y="-728.8" font-family="Times,serif" font-size="14.00">endereco_ent :string</text>
<text text-anchor="start" x="234" y="-713.8" font-family="Times,serif" font-size="14.00">nome_responsavel_ent :string</text>
<text text-anchor="start" x="234" y="-698.8" font-family="Times,serif" font-size="14.00">email_ent :string</text>
<text text-anchor="start" x="234" y="-683.8" font-family="Times,serif" font-size="14.00">telefone_ent :string</text>
<text text-anchor="start" x="234" y="-668.8" font-family="Times,serif" font-size="14.00">site_ent :string</text>
<text text-anchor="start" x="234" y="-653.8" font-family="Times,serif" font-size="14.00">data_fundacao_ent :date</text>
<text text-anchor="start" x="234" y="-638.8" font-family="Times,serif" font-size="14.00">publico_criancas_ent :boolean</text>
<text text-anchor="start" x="234" y="-623.8" font-family="Times,serif" font-size="14.00">publico_adultos_ent :boolean</text>
<text text-anchor="start" x="234" y="-608.8" font-family="Times,serif" font-size="14.00">publico_melhor_idade_ent :boolean</text>
<text text-anchor="start" x="234" y="-593.8" font-family="Times,serif" font-size="14.00">publico_adolescentes_ent :boolean</text>
<text text-anchor="start" x="234" y="-578.8" font-family="Times,serif" font-size="14.00">publico_especiais_ent :boolean</text>
<text text-anchor="start" x="234" y="-563.8" font-family="Times,serif" font-size="14.00">publico_outros_ent :string</text>
<text text-anchor="start" x="234" y="-548.8" font-family="Times,serif" font-size="14.00">numero_beneficiados_ent :integer</text>
<text text-anchor="start" x="234" y="-533.8" font-family="Times,serif" font-size="14.00">atuacao_juridica_ent :boolean</text>
<text text-anchor="start" x="234" y="-518.8" font-family="Times,serif" font-size="14.00">atuacao_administrativa_ent :boolean</text>
<text text-anchor="start" x="234" y="-503.8" font-family="Times,serif" font-size="14.00">atuacao_recreacao_ent :boolean</text>
<text text-anchor="start" x="234" y="-488.8" font-family="Times,serif" font-size="14.00">atuacao_saude_ent :boolean</text>
<text text-anchor="start" x="234" y="-473.8" font-family="Times,serif" font-size="14.00">atuacao_educacao_ent :boolean</text>
<text text-anchor="start" x="234" y="-458.8" font-family="Times,serif" font-size="14.00">atuacao_manutencao_ent :boolean</text>
<text text-anchor="start" x="234" y="-443.8" font-family="Times,serif" font-size="14.00">atuacao_doacao_ent :boolean</text>
<text text-anchor="start" x="234" y="-428.8" font-family="Times,serif" font-size="14.00">atuacao_outro_ent :string</text>
<text text-anchor="start" x="234" y="-413.8" font-family="Times,serif" font-size="14.00">apoio_municipal_ent :boolean</text>
<text text-anchor="start" x="234" y="-398.8" font-family="Times,serif" font-size="14.00">apoio_estadual_ent :boolean</text>
<text text-anchor="start" x="234" y="-383.8" font-family="Times,serif" font-size="14.00">apoio_federal_ent :boolean</text>
<text text-anchor="start" x="234" y="-368.8" font-family="Times,serif" font-size="14.00">apoio_particular_ent :boolean</text>
<text text-anchor="start" x="234" y="-353.8" font-family="Times,serif" font-size="14.00">horarios_atendimento_ent :string</text>
<text text-anchor="start" x="234" y="-338.8" font-family="Times,serif" font-size="14.00">visualizado_ent :boolean</text>
<text text-anchor="start" x="234" y="-323.8" font-family="Times,serif" font-size="14.00">aprovado_ent :boolean</text>
<text text-anchor="start" x="234" y="-308.8" font-family="Times,serif" font-size="14.00">created_at :datetime</text>
<text text-anchor="start" x="234" y="-293.8" font-family="Times,serif" font-size="14.00">updated_at :datetime</text>
</g>
<!-- Historico -->
<g id="node3" class="node"><title>Historico</title>
<path fill="none" stroke="black" d="M471,-0.5C471,-0.5 679,-0.5 679,-0.5 685,-0.5 691,-6.5 691,-12.5 691,-12.5 691,-139.5 691,-139.5 691,-145.5 685,-151.5 679,-151.5 679,-151.5 471,-151.5 471,-151.5 465,-151.5 459,-145.5 459,-139.5 459,-139.5 459,-12.5 459,-12.5 459,-6.5 465,-0.5 471,-0.5"/>
<text text-anchor="middle" x="575" y="-136.3" font-family="Times,serif" font-size="14.00">Historico</text>
<polyline fill="none" stroke="black" points="459,-128.5 691,-128.5 "/>
<text text-anchor="start" x="467" y="-113.3" font-family="Times,serif" font-size="14.00">id :integer</text>
<text text-anchor="start" x="467" y="-98.3" font-family="Times,serif" font-size="14.00">data_hist :date</text>
<text text-anchor="start" x="467" y="-83.3" font-family="Times,serif" font-size="14.00">descricao_hist :string</text>
<text text-anchor="start" x="467" y="-68.3" font-family="Times,serif" font-size="14.00">voluntario_pessoa_fisica_id :integer</text>
<text text-anchor="start" x="467" y="-53.3" font-family="Times,serif" font-size="14.00">voluntario_pessoa_juridica_id :integer</text>
<text text-anchor="start" x="467" y="-38.3" font-family="Times,serif" font-size="14.00">entidade_id :integer</text>
<text text-anchor="start" x="467" y="-23.3" font-family="Times,serif" font-size="14.00">created_at :datetime</text>
<text text-anchor="start" x="467" y="-8.3" font-family="Times,serif" font-size="14.00">updated_at :datetime</text>
</g>
<!-- Entidade&#45;&gt;Historico -->
<g id="edge1" class="edge"><title>Entidade&#45;&gt;Historico</title>
<path fill="none" stroke="#9a26eb" d="M411.327,-278.242C424.705,-246.735 440.186,-215.916 458,-188 464.295,-178.135 471.654,-168.532 479.56,-159.369"/>
<ellipse fill="none" stroke="#9a26eb" cx="409.694" cy="-282.142" rx="4.00002" ry="4.00002"/>
<polygon fill="#9a26eb" stroke="#9a26eb" points="479.669,-159.247 489.68,-154.772 482.994,-155.513 486.32,-151.779 486.32,-151.779 486.32,-151.779 482.994,-155.513 482.959,-148.786 479.669,-159.247 479.669,-159.247"/>
</g>
<!-- Post -->
<g id="node4" class="node"><title>Post</title>
<path fill="none" stroke="black" d="M909,-481C909,-481 1025,-481 1025,-481 1031,-481 1037,-487 1037,-493 1037,-493 1037,-605 1037,-605 1037,-611 1031,-617 1025,-617 1025,-617 909,-617 909,-617 903,-617 897,-611 897,-605 897,-605 897,-493 897,-493 897,-487 903,-481 909,-481"/>
<text text-anchor="middle" x="967" y="-601.8" font-family="Times,serif" font-size="14.00">Post</text>
<polyline fill="none" stroke="black" points="897,-594 1037,-594 "/>
<text text-anchor="start" x="905" y="-578.8" font-family="Times,serif" font-size="14.00">id :integer</text>
<text text-anchor="start" x="905" y="-563.8" font-family="Times,serif" font-size="14.00">data_not :date</text>
<text text-anchor="start" x="905" y="-548.8" font-family="Times,serif" font-size="14.00">data_update_not :date</text>
<text text-anchor="start" x="905" y="-533.8" font-family="Times,serif" font-size="14.00">titulo_not :string</text>
<text text-anchor="start" x="905" y="-518.8" font-family="Times,serif" font-size="14.00">descricao_not :text</text>
<text text-anchor="start" x="905" y="-503.8" font-family="Times,serif" font-size="14.00">created_at :datetime</text>
<text text-anchor="start" x="905" y="-488.8" font-family="Times,serif" font-size="14.00">updated_at :datetime</text>
</g>
<!-- VoluntarioPessoaFisica -->
<g id="node5" class="node"><title>VoluntarioPessoaFisica</title>
<path fill="none" stroke="black" d="M478.5,-188.5C478.5,-188.5 671.5,-188.5 671.5,-188.5 677.5,-188.5 683.5,-194.5 683.5,-200.5 683.5,-200.5 683.5,-897.5 683.5,-897.5 683.5,-903.5 677.5,-909.5 671.5,-909.5 671.5,-909.5 478.5,-909.5 478.5,-909.5 472.5,-909.5 466.5,-903.5 466.5,-897.5 466.5,-897.5 466.5,-200.5 466.5,-200.5 466.5,-194.5 472.5,-188.5 478.5,-188.5"/>
<text text-anchor="middle" x="575" y="-894.3" font-family="Times,serif" font-size="14.00">VoluntarioPessoaFisica</text>
<polyline fill="none" stroke="black" points="466.5,-886.5 683.5,-886.5 "/>
<text text-anchor="start" x="474.5" y="-871.3" font-family="Times,serif" font-size="14.00">id :integer</text>
<text text-anchor="start" x="474.5" y="-856.3" font-family="Times,serif" font-size="14.00">cpf_pf :string</text>
<text text-anchor="start" x="474.5" y="-841.3" font-family="Times,serif" font-size="14.00">nome_pf :string</text>
<text text-anchor="start" x="474.5" y="-826.3" font-family="Times,serif" font-size="14.00">email_pf :string</text>
<text text-anchor="start" x="474.5" y="-811.3" font-family="Times,serif" font-size="14.00">telefone_pf :string</text>
<text text-anchor="start" x="474.5" y="-796.3" font-family="Times,serif" font-size="14.00">como_ficou_sabendo_pf :text</text>
<text text-anchor="start" x="474.5" y="-781.3" font-family="Times,serif" font-size="14.00">experiencia_pf :boolean</text>
<text text-anchor="start" x="474.5" y="-766.3" font-family="Times,serif" font-size="14.00">publico_criancas_pf :boolean</text>
<text text-anchor="start" x="474.5" y="-751.3" font-family="Times,serif" font-size="14.00">publico_adultos_pf :boolean</text>
<text text-anchor="start" x="474.5" y="-736.3" font-family="Times,serif" font-size="14.00">publico_melhor_idade_pf :boolean</text>
<text text-anchor="start" x="474.5" y="-721.3" font-family="Times,serif" font-size="14.00">publico_adolescentes_pf :boolean</text>
<text text-anchor="start" x="474.5" y="-706.3" font-family="Times,serif" font-size="14.00">publico_especiais_pf :boolean</text>
<text text-anchor="start" x="474.5" y="-691.3" font-family="Times,serif" font-size="14.00">publico_outros_pf :string</text>
<text text-anchor="start" x="474.5" y="-676.3" font-family="Times,serif" font-size="14.00">atuacao_juridica_pf :boolean</text>
<text text-anchor="start" x="474.5" y="-661.3" font-family="Times,serif" font-size="14.00">atuacao_administrativa_pf :boolean</text>
<text text-anchor="start" x="474.5" y="-646.3" font-family="Times,serif" font-size="14.00">atuacao_recreacao_pf :boolean</text>
<text text-anchor="start" x="474.5" y="-631.3" font-family="Times,serif" font-size="14.00">atuacao_saude_pf :boolean</text>
<text text-anchor="start" x="474.5" y="-616.3" font-family="Times,serif" font-size="14.00">atuacao_educacao_pf :boolean</text>
<text text-anchor="start" x="474.5" y="-601.3" font-family="Times,serif" font-size="14.00">atuacao_manutencao_pf :boolean</text>
<text text-anchor="start" x="474.5" y="-586.3" font-family="Times,serif" font-size="14.00">atuacao_doacao_pf :boolean</text>
<text text-anchor="start" x="474.5" y="-571.3" font-family="Times,serif" font-size="14.00">atuacao_outro_pf :string</text>
<text text-anchor="start" x="474.5" y="-556.3" font-family="Times,serif" font-size="14.00">disp_domManha_pf :boolean</text>
<text text-anchor="start" x="474.5" y="-541.3" font-family="Times,serif" font-size="14.00">disp_domTarde_pf :boolean</text>
<text text-anchor="start" x="474.5" y="-526.3" font-family="Times,serif" font-size="14.00">disp_domNoite_pf :boolean</text>
<text text-anchor="start" x="474.5" y="-511.3" font-family="Times,serif" font-size="14.00">disp_sabManha_pf :boolean</text>
<text text-anchor="start" x="474.5" y="-496.3" font-family="Times,serif" font-size="14.00">disp_sabTarde_pf :boolean</text>
<text text-anchor="start" x="474.5" y="-481.3" font-family="Times,serif" font-size="14.00">disp_sabNoite_pf :boolean</text>
<text text-anchor="start" x="474.5" y="-466.3" font-family="Times,serif" font-size="14.00">disp_sexManha_pf :boolean</text>
<text text-anchor="start" x="474.5" y="-451.3" font-family="Times,serif" font-size="14.00">disp_sexTarde_pf :boolean</text>
<text text-anchor="start" x="474.5" y="-436.3" font-family="Times,serif" font-size="14.00">disp_sexNoite_pf :boolean</text>
<text text-anchor="start" x="474.5" y="-421.3" font-family="Times,serif" font-size="14.00">disp_quiManha_pf :boolean</text>
<text text-anchor="start" x="474.5" y="-406.3" font-family="Times,serif" font-size="14.00">disp_quiTarde_pf :boolean</text>
<text text-anchor="start" x="474.5" y="-391.3" font-family="Times,serif" font-size="14.00">disp_quiNoite_pf :boolean</text>
<text text-anchor="start" x="474.5" y="-376.3" font-family="Times,serif" font-size="14.00">disp_quaManha_pf :boolean</text>
<text text-anchor="start" x="474.5" y="-361.3" font-family="Times,serif" font-size="14.00">disp_quaTarde_pf :boolean</text>
<text text-anchor="start" x="474.5" y="-346.3" font-family="Times,serif" font-size="14.00">disp_quaNoite_pf :boolean</text>
<text text-anchor="start" x="474.5" y="-331.3" font-family="Times,serif" font-size="14.00">disp_terManha_pf :boolean</text>
<text text-anchor="start" x="474.5" y="-316.3" font-family="Times,serif" font-size="14.00">disp_terTarde_pf :boolean</text>
<text text-anchor="start" x="474.5" y="-301.3" font-family="Times,serif" font-size="14.00">disp_terNoite_pf :boolean</text>
<text text-anchor="start" x="474.5" y="-286.3" font-family="Times,serif" font-size="14.00">disp_segManha_pf :boolean</text>
<text text-anchor="start" x="474.5" y="-271.3" font-family="Times,serif" font-size="14.00">disp_segTarde_pf :boolean</text>
<text text-anchor="start" x="474.5" y="-256.3" font-family="Times,serif" font-size="14.00">disp_segNoite_pf :boolean</text>
<text text-anchor="start" x="474.5" y="-241.3" font-family="Times,serif" font-size="14.00">outras_infos_pf :text</text>
<text text-anchor="start" x="474.5" y="-226.3" font-family="Times,serif" font-size="14.00">visuzalizado_pf :boolean</text>
<text text-anchor="start" x="474.5" y="-211.3" font-family="Times,serif" font-size="14.00">created_at :datetime</text>
<text text-anchor="start" x="474.5" y="-196.3" font-family="Times,serif" font-size="14.00">updated_at :datetime</text>
</g>
<!-- VoluntarioPessoaFisica&#45;&gt;Historico -->
<g id="edge2" class="edge"><title>VoluntarioPessoaFisica&#45;&gt;Historico</title>
<path fill="none" stroke="#005c55" d="M575,-180.153C575,-173.864 575,-167.762 575,-161.876"/>
<ellipse fill="none" stroke="#005c55" cx="575" cy="-184.322" rx="4" ry="4"/>
<polygon fill="#005c55" stroke="#005c55" points="575,-161.522 579.5,-151.522 575,-156.522 575,-151.522 575,-151.522 575,-151.522 575,-156.522 570.5,-151.522 575,-161.522 575,-161.522"/>
</g>
<!-- VoluntarioPessoaJuridica -->
<g id="node6" class="node"><title>VoluntarioPessoaJuridica</title>
<path fill="none" stroke="black" d="M713.5,-436C713.5,-436 866.5,-436 866.5,-436 872.5,-436 878.5,-442 878.5,-448 878.5,-448 878.5,-650 878.5,-650 878.5,-656 872.5,-662 866.5,-662 866.5,-662 713.5,-662 713.5,-662 707.5,-662 701.5,-656 701.5,-650 701.5,-650 701.5,-448 701.5,-448 701.5,-442 707.5,-436 713.5,-436"/>
<text text-anchor="middle" x="790" y="-646.8" font-family="Times,serif" font-size="14.00">VoluntarioPessoaJuridica</text>
<polyline fill="none" stroke="black" points="701.5,-639 878.5,-639 "/>
<text text-anchor="start" x="709.5" y="-623.8" font-family="Times,serif" font-size="14.00">id :integer</text>
<text text-anchor="start" x="709.5" y="-608.8" font-family="Times,serif" font-size="14.00">cnpj_pj :string</text>
<text text-anchor="start" x="709.5" y="-593.8" font-family="Times,serif" font-size="14.00">razao_social_pj :string</text>
<text text-anchor="start" x="709.5" y="-578.8" font-family="Times,serif" font-size="14.00">inscricao_estadual_pj :string</text>
<text text-anchor="start" x="709.5" y="-563.8" font-family="Times,serif" font-size="14.00">email_pj :string</text>
<text text-anchor="start" x="709.5" y="-548.8" font-family="Times,serif" font-size="14.00">telefone_pj :string</text>
<text text-anchor="start" x="709.5" y="-533.8" font-family="Times,serif" font-size="14.00">endereco_pj :string</text>
<text text-anchor="start" x="709.5" y="-518.8" font-family="Times,serif" font-size="14.00">area_atuacao_pj :string</text>
<text text-anchor="start" x="709.5" y="-503.8" font-family="Times,serif" font-size="14.00">contato_pj :string</text>
<text text-anchor="start" x="709.5" y="-488.8" font-family="Times,serif" font-size="14.00">outras_infos_pj :string</text>
<text text-anchor="start" x="709.5" y="-473.8" font-family="Times,serif" font-size="14.00">visualizado_pj :boolean</text>
<text text-anchor="start" x="709.5" y="-458.8" font-family="Times,serif" font-size="14.00">created_at :datetime</text>
<text text-anchor="start" x="709.5" y="-443.8" font-family="Times,serif" font-size="14.00">updated_at :datetime</text>
</g>
<!-- VoluntarioPessoaJuridica&#45;&gt;Historico -->
<g id="edge3" class="edge"><title>VoluntarioPessoaJuridica&#45;&gt;Historico</title>
<path fill="none" stroke="#908318" d="M774.155,-427.996C760.53,-354.729 735.849,-261.359 692,-188 686.052,-178.049 678.967,-168.413 671.269,-159.25"/>
<ellipse fill="none" stroke="#908318" cx="774.883" cy="-431.987" rx="4.00001" ry="4.00001"/>
<polygon fill="#908318" stroke="#908318" points="671.235,-159.211 668.064,-148.714 667.952,-155.44 664.67,-151.669 664.67,-151.669 664.67,-151.669 667.952,-155.44 661.275,-154.623 671.235,-159.211 671.235,-159.211"/>
</g>
</g>
</svg>
